<svg width="10" height="6" viewBox="0 0 10 6" fill="none" xmlns="http://www.w3.org/2000/svg">
<path d="M9.70742 5.26401C9.61455 5.35694 9.50428 5.43065 9.38292 5.48095C9.26155 5.53124 9.13146 5.55713 9.00008 5.55713C8.86871 5.55713 8.73862 5.53124 8.61725 5.48095C8.49588 5.43065 8.38562 5.35694 8.29275 5.26401L5.23542 2.20734C5.17291 2.14485 5.08814 2.10975 4.99975 2.10975C4.91136 2.10975 4.82659 2.14485 4.76408 2.20734L1.70742 5.26401C1.51991 5.45161 1.26556 5.55703 1.00032 5.55709C0.735081 5.55716 0.480681 5.45185 0.293084 5.26434C0.105488 5.07683 6.25419e-05 4.82248 2.78174e-08 4.55724C-6.24863e-05 4.29201 0.105243 4.03761 0.292751 3.85001L3.35008 0.792675C3.56676 0.57598 3.82399 0.404087 4.1071 0.286811C4.39021 0.169535 4.69365 0.109173 5.00008 0.109173C5.30652 0.109173 5.60996 0.169535 5.89307 0.286811C6.17618 0.404087 6.43341 0.57598 6.65008 0.792675L9.70742 3.85001C9.89489 4.03754 10.0002 4.29184 10.0002 4.55701C10.0002 4.82217 9.89489 5.07648 9.70742 5.26401Z" fill="#02499B"/>
</svg>
