<svg width="27" height="24" viewBox="0 0 27 24" fill="none" xmlns="http://www.w3.org/2000/svg">
<path d="M25.0368 23.0172H1.63348C0.712792 23.0172 0 22.2747 0 21.3838V1.63348C0 0.712792 0.742491 0 1.63348 0H25.0665C25.9872 0 26.7 0.742491 26.7 1.63348V21.3838C26.7 22.2747 25.9575 23.0172 25.0368 23.0172Z" fill="#FFF8E9"/>
<path d="M25.0368 6.94972H1.63348C0.712792 6.94972 0 6.20723 0 5.31624V1.63348C0 0.712792 0.742491 0 1.63348 0H25.0665C25.9872 0 26.7 0.742491 26.7 1.63348V5.31624C26.7 6.20723 25.9575 6.94972 25.0368 6.94972Z" fill="#02499B"/>
<path d="M5.67263 9.50389H2.73236C2.52447 9.50389 2.34627 9.68209 2.34627 9.88999V11.7314C2.34627 11.9393 2.52447 12.1175 2.73236 12.1175H5.67263C5.88053 12.1175 6.05873 11.9393 6.05873 11.7314V9.88999C6.02903 9.68209 5.88053 9.50389 5.67263 9.50389Z" fill="#02499B"/>
<path d="M11.7611 9.50389H8.82079C8.61289 9.50389 8.43469 9.68209 8.43469 9.88999V11.7314C8.43469 11.9393 8.61289 12.1175 8.82079 12.1175H11.7611C11.969 12.1175 12.1471 11.9393 12.1471 11.7314V9.88999C12.1471 9.68209 11.969 9.50389 11.7611 9.50389Z" fill="#02499B"/>
<path d="M17.8495 9.50389H14.9092C14.7013 9.50389 14.5231 9.68209 14.5231 9.88999V11.7314C14.5231 11.9393 14.7013 12.1175 14.9092 12.1175H17.8495C18.0574 12.1175 18.2356 11.9393 18.2356 11.7314V9.88999C18.2356 9.68209 18.0574 9.50389 17.8495 9.50389Z" fill="#02499B"/>
<path d="M5.67263 13.6618H2.73236C2.52447 13.6618 2.34627 13.84 2.34627 14.0479V15.8893C2.34627 16.0972 2.52447 16.2754 2.73236 16.2754H5.67263C5.88053 16.2754 6.05873 16.0972 6.05873 15.8893V14.0479C6.02903 13.84 5.88053 13.6618 5.67263 13.6618Z" fill="#02499B"/>
<path d="M11.7611 13.6618H8.82079C8.61289 13.6618 8.43469 13.84 8.43469 14.0479V15.8893C8.43469 16.0972 8.61289 16.2754 8.82079 16.2754H11.7611C11.969 16.2754 12.1471 16.0972 12.1471 15.8893V14.0479C12.1471 13.84 11.969 13.6618 11.7611 13.6618Z" fill="#02499B"/>
<path d="M17.8495 13.6618H14.9092C14.7013 13.6618 14.5231 13.84 14.5231 14.0479V15.8893C14.5231 16.0972 14.7013 16.2754 14.9092 16.2754H17.8495C18.0574 16.2754 18.2356 16.0972 18.2356 15.8893V14.0479C18.2356 13.84 18.0574 13.6618 17.8495 13.6618Z" fill="#02499B"/>
<path d="M5.67263 17.8495H2.73236C2.52447 17.8495 2.34627 18.0277 2.34627 18.2356V20.077C2.34627 20.2849 2.52447 20.4631 2.73236 20.4631H5.67263C5.88053 20.4631 6.05873 20.2849 6.05873 20.077V18.2356C6.02903 18.0277 5.88053 17.8495 5.67263 17.8495Z" fill="#02499B"/>
<path d="M11.7611 17.8495H8.82079C8.61289 17.8495 8.43469 18.0277 8.43469 18.2356V20.077C8.43469 20.2849 8.61289 20.4631 8.82079 20.4631H11.7611C11.969 20.4631 12.1471 20.2849 12.1471 20.077V18.2356C12.1471 18.0277 11.969 17.8495 11.7611 17.8495Z" fill="#02499B"/>
<path d="M17.8495 17.8495H14.9092C14.7013 17.8495 14.5231 18.0277 14.5231 18.2356V20.077C14.5231 20.2849 14.7013 20.4631 14.9092 20.4631H17.8495C18.0574 20.4631 18.2356 20.2849 18.2356 20.077V18.2356C18.2356 18.0277 18.0574 17.8495 17.8495 17.8495Z" fill="#02499B"/>
<path d="M23.9379 9.50389H20.9977C20.7898 9.50389 20.6116 9.68209 20.6116 9.88999V11.7314C20.6116 11.9393 20.7898 12.1175 20.9977 12.1175H23.9379C24.1458 12.1175 24.324 11.9393 24.324 11.7314V9.88999C24.324 9.68209 24.1458 9.50389 23.9379 9.50389Z" fill="#A62C2C"/>
<path d="M23.9379 13.6618H20.9976C20.7897 13.6618 20.6115 13.84 20.6115 14.0479V15.8893C20.6115 16.0972 20.7897 16.2754 20.9976 16.2754H23.9379C24.1458 16.2754 24.324 16.0972 24.324 15.8893V14.0479C24.324 13.84 24.1458 13.6618 23.9379 13.6618Z" fill="#A62C2C"/>
<path d="M23.9379 17.8495H20.9976C20.7897 17.8495 20.6115 18.0277 20.6115 18.2356V20.077C20.6115 20.2849 20.7897 20.4631 20.9976 20.4631H23.9379C24.1458 20.4631 24.324 20.2849 24.324 20.077V18.2356C24.324 18.0277 24.1458 17.8495 23.9379 17.8495Z" fill="#A62C2C"/>
<path d="M3.80155 11.4641C3.95005 11.4641 4.03915 11.4344 4.15795 11.3453L6.23692 9.29598C6.41512 9.11779 6.44482 8.82079 6.26662 8.61289C6.08843 8.43469 5.79143 8.405 5.58353 8.58319L3.80155 10.3058L2.79176 9.17719C2.64327 8.96929 2.31657 8.96929 2.10867 9.14749C1.90077 9.29598 1.90077 9.62268 2.07897 9.83058L3.41546 11.3453C3.53426 11.4047 3.62335 11.4641 3.80155 11.4641Z" fill="white"/>
<path d="M12.7115 12.6224C12.5333 12.4442 12.2363 12.4145 12.0284 12.5927L10.2761 14.2855L9.2663 13.1569C9.1178 12.949 8.7911 12.949 8.5832 13.1272C8.37531 13.3054 8.37531 13.6024 8.55351 13.8103L9.88999 15.325C9.97909 15.4141 10.0979 15.4735 10.2464 15.4735C10.3949 15.4735 10.484 15.4438 10.6028 15.3547L12.6818 13.3054C12.86 13.0975 12.8897 12.8006 12.7115 12.6224Z" fill="white"/>
<path d="M6.17754 17.0476L4.42526 18.7405L3.41547 17.6119C3.26697 17.404 2.94027 17.404 2.73237 17.5822C2.52448 17.7604 2.52448 18.0574 2.70268 18.2653L4.03916 19.78C4.12826 19.8691 4.24706 19.9285 4.39556 19.9285C4.54405 19.9285 4.63315 19.8988 4.75195 19.8097L6.83093 17.7604C7.00913 17.5822 7.03883 17.2852 6.86063 17.0773C6.68243 16.8991 6.35573 16.8694 6.17754 17.0476Z" fill="white"/>
</svg>
