<svg width="180" height="176" viewBox="0 0 180 176" fill="none" xmlns="http://www.w3.org/2000/svg">
<g clip-path="url(#clip0_23_135)">
<path d="M69.4982 160.303L64.8108 164.64L68.536 158.358C65.6011 153.009 60.801 148.386 60.801 148.386C60.801 148.386 50.8426 157.975 50.8426 165.513C50.8426 173.051 55.3011 175.683 60.801 175.683C66.3009 175.683 70.7594 173.051 70.7594 165.513C70.7594 163.835 70.2653 162.056 69.4982 160.303Z" fill="#F2F2F2"/>
<path d="M63.6053 164.875V165.247C63.5833 169.566 62.8586 172.935 61.4367 175.308C61.4165 175.343 61.3946 175.376 61.3744 175.411L61.2152 175.314L61.0633 175.218C62.6408 172.656 63.199 169.034 63.2191 165.267C63.221 165.146 63.2228 165.022 63.221 164.899C63.2155 163.304 63.1185 161.691 62.9629 160.124C62.952 160.003 62.9392 159.879 62.9264 159.756C62.7104 157.689 62.3993 155.713 62.0808 153.997C62.0589 153.876 62.0351 153.754 62.0113 153.635C61.4604 150.732 60.8986 148.63 60.7705 148.165C60.7559 148.108 60.7467 148.076 60.7449 148.069L60.9187 148.019L60.9206 148.017L61.0963 147.968C61.0981 147.975 61.1292 148.08 61.1804 148.275C61.3762 149.003 61.885 150.981 62.3846 153.589C62.4066 153.707 62.4304 153.828 62.4523 153.949C62.7122 155.342 62.9666 156.898 63.1679 158.531C63.2192 158.941 63.2649 159.346 63.3052 159.745C63.3198 159.868 63.3326 159.992 63.3436 160.113C63.512 161.807 63.5992 163.395 63.6053 164.875Z" fill="white"/>
<path d="M62.3846 153.589C62.262 153.605 62.1376 153.622 62.0113 153.635C61.6684 153.67 61.3239 153.688 60.9791 153.688C59.5099 153.69 58.059 153.361 56.7333 152.724C56.6564 152.822 56.5796 152.919 56.5009 153.019C57.8955 153.703 59.4272 154.058 60.9791 154.056C61.3471 154.056 61.7149 154.036 62.0808 153.997C62.2053 153.984 62.3297 153.968 62.4523 153.949C63.4645 153.803 64.4487 153.504 65.3713 153.061C65.2926 152.96 65.2158 152.86 65.1407 152.763C64.2675 153.173 63.3388 153.451 62.3846 153.589Z" fill="white"/>
<path d="M63.3052 159.745C63.1789 159.753 63.0526 159.756 62.9263 159.756C62.8879 159.758 62.8476 159.758 62.8092 159.758C61.2173 159.758 59.6489 159.371 58.2379 158.63C56.8268 157.89 55.615 156.817 54.7056 155.504C54.6324 155.612 54.5591 155.721 54.4878 155.831C55.4357 157.16 56.6849 158.243 58.132 158.989C59.5791 159.736 61.1824 160.126 62.8092 160.126C62.8605 160.126 62.9117 160.126 62.9629 160.124C63.091 160.122 63.2173 160.119 63.3436 160.113C65.2976 160.012 67.1814 159.348 68.7698 158.2C68.7112 158.092 68.6527 157.983 68.5923 157.875C67.0486 159.002 65.2111 159.652 63.3052 159.745Z" fill="white"/>
<path d="M63.6053 164.875C63.4772 164.886 63.3491 164.894 63.221 164.899C63.0837 164.905 62.9465 164.908 62.8092 164.908C60.6701 164.906 58.5893 164.207 56.8783 162.916C55.1674 161.626 53.9184 159.813 53.3184 157.75C53.236 157.899 53.1537 158.046 53.075 158.195C53.7511 160.254 55.0555 162.046 56.803 163.317C58.5504 164.588 60.652 165.274 62.8092 165.276C62.9465 165.276 63.0837 165.274 63.2191 165.267C63.3491 165.263 63.4772 165.256 63.6053 165.247C66.1929 165.043 68.6068 163.859 70.3583 161.934C70.3199 161.798 70.276 161.664 70.2321 161.528C68.5403 163.467 66.1633 164.668 63.6053 164.875Z" fill="white"/>
<path d="M179.74 9.42524H0.260493C0.191562 9.425 0.12554 9.39731 0.0768823 9.34824C0.0282246 9.29916 0.000900269 9.23271 0.000900269 9.16342C0.000900269 9.09414 0.0282246 9.02769 0.0768823 8.97862C0.12554 8.92954 0.191562 8.90185 0.260493 8.90161H179.74C179.808 8.90185 179.874 8.92954 179.923 8.97862C179.972 9.02769 179.999 9.09414 179.999 9.16342C179.999 9.23271 179.972 9.29916 179.923 9.34824C179.874 9.39731 179.808 9.425 179.74 9.42524Z" fill="#CACACA"/>
<path d="M6.12361 5.75985C7.70614 5.75985 8.98902 4.47047 8.98902 2.87993C8.98902 1.28939 7.70614 0 6.12361 0C4.54109 0 3.2582 1.28939 3.2582 2.87993C3.2582 4.47047 4.54109 5.75985 6.12361 5.75985Z" fill="#3F3D56"/>
<path d="M16.0223 5.75985C17.6048 5.75985 18.8877 4.47047 18.8877 2.87993C18.8877 1.28939 17.6048 0 16.0223 0C14.4398 0 13.1569 1.28939 13.1569 2.87993C13.1569 4.47047 14.4398 5.75985 16.0223 5.75985Z" fill="#3F3D56"/>
<path d="M25.921 5.75985C27.5035 5.75985 28.7864 4.47047 28.7864 2.87993C28.7864 1.28939 27.5035 0 25.921 0C24.3385 0 23.0556 1.28939 23.0556 2.87993C23.0556 4.47047 24.3385 5.75985 25.921 5.75985Z" fill="#3F3D56"/>
<path d="M173.809 1.7616H166.775C166.638 1.76112 166.506 1.70575 166.408 1.6076C166.311 1.50945 166.256 1.37654 166.256 1.23798C166.256 1.09942 166.311 0.966506 166.408 0.86836C166.506 0.770214 166.638 0.714837 166.775 0.714359H173.809C173.877 0.714121 173.945 0.727488 174.009 0.753695C174.072 0.779903 174.13 0.818436 174.178 0.867083C174.227 0.915729 174.265 0.973532 174.292 1.03718C174.318 1.10083 174.331 1.16906 174.331 1.23798C174.331 1.3069 174.318 1.37513 174.292 1.43878C174.265 1.50243 174.227 1.56023 174.178 1.60888C174.13 1.65752 174.072 1.69606 174.009 1.72226C173.945 1.74847 173.877 1.76184 173.809 1.7616Z" fill="#3F3D56"/>
<path d="M173.809 3.72522H166.775C166.638 3.72475 166.506 3.66937 166.408 3.57122C166.311 3.47308 166.256 3.34016 166.256 3.2016C166.256 3.06304 166.311 2.93013 166.408 2.83198C166.506 2.73384 166.638 2.67846 166.775 2.67798H173.809C173.877 2.67774 173.945 2.69111 174.009 2.71732C174.072 2.74353 174.13 2.78206 174.178 2.83071C174.227 2.87935 174.265 2.93715 174.292 3.0008C174.318 3.06445 174.331 3.13269 174.331 3.2016C174.331 3.27052 174.318 3.33876 174.292 3.4024C174.265 3.46605 174.227 3.52385 174.178 3.5725C174.13 3.62115 174.072 3.65968 174.009 3.68589C173.945 3.7121 173.877 3.72546 173.809 3.72522Z" fill="#3F3D56"/>
<path d="M173.809 5.68885H166.775C166.638 5.68837 166.506 5.63299 166.408 5.53485C166.311 5.4367 166.256 5.30379 166.256 5.16523C166.256 5.02667 166.311 4.89376 166.408 4.79561C166.506 4.69746 166.638 4.64208 166.775 4.6416H173.809C173.877 4.64137 173.945 4.65474 174.009 4.68095C174.072 4.70715 174.13 4.74568 174.178 4.79433C174.227 4.84298 174.265 4.90078 174.292 4.96443C174.318 5.02808 174.331 5.09631 174.331 5.16523C174.331 5.23414 174.318 5.30238 174.292 5.36603C174.265 5.42967 174.227 5.48748 174.178 5.53613C174.13 5.58477 174.072 5.6233 174.009 5.64951C173.945 5.67572 173.877 5.68909 173.809 5.68885Z" fill="#3F3D56"/>
<path d="M169.884 21.2654H5.40695V108.849H169.884V21.2654Z" fill="#F0F0F0"/>
<path d="M169.884 37.6596V36.8007H137.867V21.2654H137.012V36.8007H104.995V21.2654H104.14V36.8007H72.1232V21.2654H71.2686V36.8007H39.2513V21.2654H38.3967V36.8007H5.40695V37.6596H38.3967V54.8222H5.40695V55.6811H38.3967V72.8436H5.40695V73.7025H38.3967V90.862H5.40695V91.7209H38.3967V108.849H39.2513V91.7209H71.2686V108.849H72.1232V91.7209H104.14V108.849H104.995V91.7209H137.012V108.849H137.867V91.7209H169.884V90.862H137.867V73.7025H169.884V72.8436H137.867V55.6811H169.884V54.8222H137.867V37.6596L169.884 37.6596ZM71.2686 90.862H39.2513V73.7025H71.2686V90.862ZM71.2686 72.8436H39.2513V55.6811H71.2686V72.8436ZM71.2686 54.8222H39.2513V37.6596H71.2686V54.8222ZM104.14 90.862H72.1232V73.7025H104.14V90.862ZM104.14 72.8436H72.1232V55.6811H104.14V72.8436ZM104.14 54.8222H72.1232V37.6596H104.14V54.8222ZM137.012 90.862H104.995V73.7026H137.012V90.862ZM137.012 72.8437H104.995V55.6811H137.012V72.8437ZM137.012 54.8222H104.995V37.6596H137.012V54.8222Z" fill="white"/>
<path d="M56.6242 41.8333H45.6206V52.54H56.6242V41.8333Z" fill="#CACACA"/>
<path d="M157.931 76.502H146.927V87.2087H157.931V76.502Z" fill="#CACACA"/>
<path d="M60.0425 94.3049H49.0389V105.012H60.0425V94.3049Z" fill="#CACACA"/>
<path d="M63.2945 39.8469H52.2909V50.5537H63.2945V39.8469Z" fill="#02499B"/>
<path d="M115.02 84.3529L128.078 72.6602L131.93 74.5785L116.269 91.0876L115.02 84.3529Z" fill="#FFB6B6"/>
<path d="M129.796 76.679C131.513 76.679 132.904 75.2806 132.904 73.5557C132.904 71.8307 131.513 70.4324 129.796 70.4324C128.08 70.4324 126.689 71.8307 126.689 73.5557C126.689 75.2806 128.08 76.679 129.796 76.679Z" fill="#FFB6B6"/>
<path d="M102.798 172.361H99.708L98.2381 160.384L102.798 160.384L102.798 172.361Z" fill="#FFB6B6"/>
<path d="M103.586 175.371L93.6232 175.371V175.244C93.6233 174.211 94.0319 173.22 94.7591 172.489C95.4862 171.758 96.4725 171.347 97.5009 171.347H97.5011L103.586 171.347L103.586 175.371Z" fill="#2F2E41"/>
<path d="M91.6106 172.361H88.5208L87.0509 160.384L91.6109 160.384L91.6106 172.361Z" fill="#FFB6B6"/>
<path d="M92.3985 175.371L82.436 175.371V175.244C82.4361 174.211 82.8447 173.22 83.5718 172.489C84.299 171.758 85.2853 171.347 86.3137 171.347H86.3139L92.3986 171.347L92.3985 175.371Z" fill="#2F2E41"/>
<path d="M105.393 103.893C105.393 103.893 113.162 103.269 110.676 117.011C108.19 130.754 103.04 168.346 103.04 168.346L98.3714 168.991L95.6132 118.844L93.5265 168.991L87.5888 168.346L81.7753 114.512C81.7753 114.512 79.9086 110.184 81.7742 107.195C83.6398 104.206 105.393 103.893 105.393 103.893Z" fill="#2F2E41"/>
<path d="M100.421 69.8492L102.578 68.6877C102.578 68.6877 107.892 68.2322 110.061 74.5065L115.812 83.2378L125.135 75.1172L129.175 77.9282L117.426 92.022L112.54 92.6493L101.974 78.9068L100.421 69.8492Z" fill="#3F3D56"/>
<path d="M92.5937 44.509C83.7317 44.509 81.2511 54.2934 81.2511 59.8132C81.2511 65.3331 86.3294 64.4982 92.5937 64.4982C95.2825 64.4982 97.7512 64.6507 99.6952 64.3898L100.63 62.0952L101.383 63.9965C102.978 63.4073 103.936 62.2095 103.936 59.8132C103.936 54.2934 101.761 44.509 92.5937 44.509Z" fill="#2F2E41"/>
<path d="M92.5558 64.4888C96.7711 64.4888 100.188 61.0543 100.188 56.8176C100.188 52.581 96.7711 49.1465 92.5558 49.1465C88.3405 49.1465 84.9233 52.581 84.9233 56.8176C84.9233 61.0543 88.3405 64.4888 92.5558 64.4888Z" fill="#FFB6B6"/>
<path d="M83.7372 56.0652H86.7559L88.0877 52.3172L88.354 56.0652H89.7969L90.5738 53.8789L90.7292 56.0652H101.45C101.45 53.9115 100.599 51.846 99.0838 50.323C97.5686 48.8001 95.5135 47.9446 93.3706 47.9446H91.8168C89.674 47.9446 87.6189 48.8001 86.1036 50.323C84.5884 51.846 83.7372 53.9115 83.7372 56.0652Z" fill="#2F2E41"/>
<path d="M134.768 61.71H123.765V72.4167H134.768V61.71Z" fill="#02499B"/>
<path d="M107.808 101.067C106.636 101.082 103.106 80.0317 103.106 80.0317L102.578 68.6879L98.7207 68.5576V68.3026C98.7207 67.7906 98.5183 67.2996 98.1581 66.9375C97.7979 66.5755 97.3093 66.3721 96.7999 66.3721H89.4544C88.9664 66.3723 88.4968 66.5594 88.1411 66.8952C87.7855 67.231 87.5704 67.6903 87.5397 68.1798L84.5152 68.0776L79.2771 84.8041C79.2771 84.8041 84.1038 100.346 81.7742 107.195C81.7742 107.195 104.471 109.154 108.816 104.806C108.816 104.806 108.979 101.052 107.808 101.067Z" fill="#3F3D56"/>
<path d="M85.8151 70.1617L84.5151 68.0777C84.5151 68.0777 80.2857 67.0267 78.5444 69.8435C76.8031 72.6603 71.685 87.9229 71.685 87.9229L76.9678 89.7969L82.9627 81.3497L85.8151 70.1617Z" fill="#3F3D56"/>
<path d="M99.0315 81.0745H88.0279V91.7812H99.0315V81.0745Z" fill="#02499B"/>
<path d="M79.5855 84.9442L75.7573 84.5371C75.5156 85.0554 75.3943 85.6222 75.4027 86.1946C75.4111 86.767 75.5489 87.33 75.8057 87.8409C76.0625 88.3519 76.4315 88.7975 76.8849 89.1439C77.3384 89.4904 77.8642 89.7286 78.4228 89.8407L93.5701 92.8791L91.9901 87.9883L79.5855 84.9442Z" fill="#FFB6B6"/>
<path d="M93.6157 92.9356C95.332 92.9356 96.7233 91.5372 96.7233 89.8123C96.7233 88.0873 95.332 86.689 93.6157 86.689C91.8994 86.689 90.5081 88.0873 90.5081 89.8123C90.5081 91.5372 91.8994 92.9356 93.6157 92.9356Z" fill="#FFB6B6"/>
<path d="M89.7363 93.0304L78.1966 90.3802C77.3604 90.1858 76.5883 89.7778 75.955 89.1956C75.3217 88.6133 74.8487 87.8767 74.5818 87.0568L74.1154 85.6114L77.1103 83.2427L90.831 87.0971L89.7363 93.0304Z" fill="#3F3D56"/>
<path d="M154.582 176H36.1841C36.1017 176 36.0227 175.967 35.9644 175.908C35.9061 175.85 35.8734 175.77 35.8734 175.688C35.8734 175.605 35.9061 175.525 35.9644 175.467C36.0227 175.408 36.1017 175.375 36.1841 175.375H154.582C154.665 175.375 154.744 175.408 154.802 175.467C154.86 175.525 154.893 175.605 154.893 175.688C154.893 175.77 154.86 175.85 154.802 175.908C154.744 175.967 154.665 176 154.582 176Z" fill="#CACACA"/>
</g>
<defs>
<clipPath id="clip0_23_135">
<rect width="180" height="176" fill="white"/>
</clipPath>
</defs>
</svg>
