<svg width="15" height="25" viewBox="0 0 15 25" fill="none" xmlns="http://www.w3.org/2000/svg">
<path d="M10.8991 3.61302C11.2472 2.31382 10.4762 0.978412 9.17697 0.630309C7.87777 0.282205 6.54237 1.05322 6.19426 2.35242C5.84616 3.65162 6.61718 4.98703 7.91638 5.33513C9.21558 5.68324 10.551 4.91222 10.8991 3.61302Z" fill="#F9B61F"/>
<path d="M14.1202 8.07303C13.7097 7.96357 13.2993 8.18249 13.1624 8.62032L11.1101 16.2004C10.7817 17.5412 9.60502 18.5264 8.26415 18.6358C8.15469 18.6358 7.9905 18.6358 7.9905 18.6358H5.03511C4.59728 18.6358 4.2689 18.9642 4.2689 19.402C4.29626 19.8672 4.62464 20.1956 5.06248 20.1956H8.01787C8.01787 20.1956 8.23679 20.1956 8.42834 20.1682C10.4533 20.0041 12.1226 18.5811 12.6425 16.5835L14.6675 9.00343C14.8043 8.62032 14.558 8.20985 14.1202 8.07303Z" fill="#F9B61F"/>
<path d="M8.09996 17.4044C9.03036 17.3497 9.76921 16.6929 9.98813 15.8173L12.0952 8.01831C12.2868 7.27947 11.8489 6.51325 11.1101 6.34906C11.0554 6.34906 10.8091 6.3217 10.8091 6.3217C8.83881 6.13015 6.95064 7.36156 6.43071 9.35919C6.43071 9.38655 6.34862 9.68756 6.32125 9.82439C5.91078 11.3842 5.69187 12.9166 5.58241 14.449H1.53242C1.17668 14.449 0.766212 14.6132 0.4652 14.9142C0.164188 15.1879 0 15.5983 0 15.9815V23.0142C0 23.8625 0.684118 24.5466 1.53242 24.5466C2.38073 24.5466 3.06485 23.8625 3.06485 23.0142V17.4044H7.93577H8.09996Z" fill="#F9B61F"/>
</svg>
