<svg width="32" height="46" viewBox="0 0 32 46" fill="none" xmlns="http://www.w3.org/2000/svg">
<path d="M31.3985 0H0V45.315H31.3985V0Z" fill="#EBF0F3"/>
<path d="M12.4378 4.4573C11.4824 3.50086 10.1621 2.90891 8.70357 2.90808C7.24502 2.90734 5.92407 3.49781 4.96771 4.45315L8.70071 8.1903L12.4378 4.4573Z" fill="#E56353"/>
<path d="M4.16363 4.4527C3.20719 5.40813 2.61524 6.72834 2.61441 8.1869C2.61358 9.64555 3.20414 10.9664 4.15948 11.9229L7.89654 8.18985L4.16363 4.4527Z" fill="#D15241"/>
<path d="M12.4378 4.45731L8.70071 8.19031L12.4337 11.9274C13.3901 10.9719 13.9821 9.65172 13.9828 8.19307C13.9836 6.73452 13.3931 5.41366 12.4378 4.45731Z" fill="#FCD462"/>
<path d="M8.70062 8.19031L4.96356 11.9233C5.91899 12.8798 7.2392 13.4717 8.69776 13.4725L8.70062 8.19031Z" fill="#D5D6DB"/>
<path d="M8.70061 8.19031L8.69785 13.4724C10.1564 13.4732 11.4774 12.8827 12.4337 11.9274L8.70061 8.19031Z" fill="#44C4A1"/>
<path d="M17.7284 2.91269H16.1814V4.4597H17.7284V2.91269Z" fill="#D15241"/>
<path d="M17.7284 5.14258H16.1814V6.68959H17.7284V5.14258Z" fill="#D5D6DB"/>
<path d="M17.7237 7.37292H16.1767V8.91993H17.7237V7.37292Z" fill="#E56353"/>
<path d="M17.7237 9.60321H16.1767V11.1502H17.7237V9.60321Z" fill="#44C4A1"/>
<path d="M17.7237 11.834H16.1767V13.381H17.7237V11.834Z" fill="#FCD462"/>
<path d="M28.4168 16.7216H3.14789V17.413H28.4168V16.7216Z" fill="#D5D6DB"/>
<path d="M28.4611 12.9479L18.992 12.9644L18.9922 12.2731L28.4613 12.2566L28.4611 12.9479Z" fill="#D5D6DB"/>
<path d="M28.4114 10.7176L18.9424 10.7342L18.9426 10.0429L28.4118 10.0265L28.4114 10.7176Z" fill="#D5D6DB"/>
<path d="M28.4126 8.48748L18.9435 8.50399L18.9439 7.81281L28.413 7.7962L28.4126 8.48748Z" fill="#D5D6DB"/>
<path d="M28.417 6.25738L18.9478 6.2738L18.9482 5.58261L28.4173 5.56601L28.417 6.25738Z" fill="#D5D6DB"/>
<path d="M28.4211 4.02712L18.952 4.04373L18.9524 3.35245L28.4216 3.33594L28.4211 4.02712Z" fill="#D5D6DB"/>
<path d="M28.4116 19.3278H3.14272V20.0192H28.4116V19.3278Z" fill="#D5D6DB"/>
<path d="M28.4069 21.935H3.13802V22.6264H28.4069V21.935Z" fill="#D5D6DB"/>
<path d="M28.4017 24.5407H3.13275V25.2321H28.4017V24.5407Z" fill="#D5D6DB"/>
<path d="M16.8286 27.8228L3.12769 27.8313L3.12805 27.14L16.829 27.1315L16.8286 27.8228Z" fill="#D5D6DB"/>
<path d="M3.81039 42.0732L3.8174 29.232L3.14069 29.2316L3.13378 42.0729L3.13341 42.7495L3.81002 42.7499L28.404 42.7632L28.4044 42.0866L3.81039 42.0732Z" fill="#64798A"/>
<path d="M5.73417 40.2738C5.67643 40.2738 5.61823 40.2546 5.5699 40.2153C5.45811 40.1243 5.44115 39.9599 5.53209 39.8482L8.78963 35.8414L13.5167 38.1332L16.4525 35.8732L20.0799 37.3148L23.3184 35.4983L24.7884 31.8836C24.8429 31.7501 24.9945 31.6858 25.1284 31.7401C25.2619 31.7944 25.3261 31.9466 25.2719 32.08L23.733 35.8638L20.1185 37.8914L16.5357 36.4677L13.5795 38.7436L8.93397 36.4911L5.93726 40.1777C5.88533 40.2409 5.80998 40.2738 5.73417 40.2738Z" fill="#64798A"/>
<path d="M8.86562 36.8961C9.21302 36.8961 9.49465 36.6145 9.49465 36.2671C9.49465 35.9197 9.21302 35.6381 8.86562 35.6381C8.51823 35.6381 8.2366 35.9197 8.2366 36.2671C8.2366 36.6145 8.51823 36.8961 8.86562 36.8961Z" fill="#FCD462"/>
<path d="M13.5086 38.9929C13.856 38.9929 14.1376 38.7113 14.1376 38.3639C14.1376 38.0165 13.856 37.7348 13.5086 37.7348C13.1612 37.7348 12.8796 38.0165 12.8796 38.3639C12.8796 38.7113 13.1612 38.9929 13.5086 38.9929Z" fill="#44C4A1"/>
<path d="M16.5427 36.9009C16.8901 36.9009 17.1717 36.6192 17.1717 36.2718C17.1717 35.9244 16.8901 35.6428 16.5427 35.6428C16.1953 35.6428 15.9136 35.9244 15.9136 36.2718C15.9136 36.6192 16.1953 36.9009 16.5427 36.9009Z" fill="#E56353"/>
<path d="M20.082 38.157C20.4294 38.157 20.711 37.8753 20.711 37.5279C20.711 37.1805 20.4294 36.8989 20.082 36.8989C19.7346 36.8989 19.4529 37.1805 19.4529 37.5279C19.4529 37.8753 19.7346 38.157 20.082 38.157Z" fill="#D5D6DB"/>
<path d="M23.4867 36.2728C23.8341 36.2728 24.1157 35.9912 24.1157 35.6438C24.1157 35.2964 23.8341 35.0148 23.4867 35.0148C23.1393 35.0148 22.8577 35.2964 22.8577 35.6438C22.8577 35.9912 23.1393 36.2728 23.4867 36.2728Z" fill="#DC8744"/>
</svg>
