<svg width="19" height="33" viewBox="0 0 19 33" fill="none" xmlns="http://www.w3.org/2000/svg">
<path d="M17.6859 33H0.773438C0.350625 32.9897 0.0103125 32.6494 0 32.2266V0.773438C0.0103125 0.350625 0.350625 0.0103125 0.773438 0H17.6859C18.1088 0.0103125 18.4491 0.350625 18.4594 0.773438V32.2266C18.4491 32.6494 18.1088 32.9897 17.6859 33Z" fill="#02499B"/>
<path d="M17.4797 2.62968H0.979691V29.0297H17.4797V2.62968Z" fill="white"/>
<path d="M11.2922 1.65H7.16718C7.03312 1.65825 6.91762 1.55615 6.90937 1.42209C6.90886 1.41229 6.90886 1.40198 6.90937 1.39218V1.2375C6.90112 1.10343 7.00322 0.987934 7.13728 0.979684C7.14707 0.979169 7.15739 0.979169 7.16718 0.979684H11.2922C11.4262 0.971434 11.5417 1.07353 11.55 1.20759C11.5505 1.21739 11.5505 1.2277 11.55 1.2375V1.39218C11.5582 1.52625 11.4562 1.64175 11.3221 1.65C11.3123 1.65051 11.302 1.65051 11.2922 1.65Z" fill="#BCBCBC"/>
<path d="M11.2922 31.0406H7.16718C7.03312 31.0489 6.91762 30.9468 6.90937 30.8127C6.90886 30.8029 6.90886 30.7926 6.90937 30.7828V30.6281C6.90112 30.4941 7.00322 30.3786 7.13728 30.3703C7.14707 30.3698 7.15739 30.3698 7.16718 30.3703H11.2922C11.4262 30.3621 11.5417 30.4642 11.55 30.5982C11.5505 30.608 11.5505 30.6183 11.55 30.6281V30.7828C11.5407 30.9215 11.4309 31.0314 11.2922 31.0406Z" fill="#BCBCBC"/>
<path d="M7.80089 13.2975H2.73642V18.3619H7.80089V13.2975Z" fill="#1B83E4"/>
<path d="M7.80089 20.8973H2.73642V25.9617H7.80089V20.8973Z" fill="#1B83E4"/>
<path d="M15.7229 14.4138H9.2106V14.9294H15.7229V14.4138Z" fill="#8A8A8A"/>
<path d="M13.3511 16.3582H9.2106V16.8738H13.3511V16.3582Z" fill="#8A8A8A"/>
<path d="M15.7229 14.4138H9.2106V14.9294H15.7229V14.4138Z" fill="#8A8A8A"/>
<path d="M13.3511 16.3582H9.2106V16.8738H13.3511V16.3582Z" fill="#8A8A8A"/>
<path d="M15.7229 22.0141H9.2106V22.5297H15.7229V22.0141Z" fill="#8A8A8A"/>
<path d="M13.3511 23.9559H9.2106V24.4716H13.3511V23.9559Z" fill="#8A8A8A"/>
<path d="M15.7229 6.8145H9.2106V7.33012H15.7229V6.8145Z" fill="#8A8A8A"/>
<path d="M13.3511 8.75841H9.2106V9.27403H13.3511V8.75841Z" fill="#8A8A8A"/>
<path d="M7.80089 5.69765H2.73642V10.7621H7.80089V5.69765Z" fill="#1B83E4"/>
<path d="M4.11829 5.69765H2.73642V10.7621H4.11829V5.69765Z" fill="#F9BF1F"/>
<path d="M4.11829 13.2974H2.73642V18.3619H4.11829V13.2974Z" fill="#F9BF1F"/>
<path d="M4.11829 20.8972H2.73642V25.9617H4.11829V20.8972Z" fill="#F9BF1F"/>
</svg>
