<svg width="24" height="24" viewBox="0 0 24 24" fill="none" xmlns="http://www.w3.org/2000/svg">
<g clip-path="url(#clip0_3_82)">
<path d="M4.34299 10.9997H-7.62939e-06C0.00158023 9.67412 0.528874 8.40327 1.46621 7.46593C2.40355 6.52859 3.6744 6.0013 4.99999 5.99971H11V1.63571C11.0002 1.36044 11.0698 1.08966 11.2023 0.848416C11.3349 0.607171 11.5262 0.403252 11.7584 0.255518C11.9907 0.107784 12.2565 0.0210062 12.5312 0.00321096C12.8059 -0.0145842 13.0806 0.0371776 13.33 0.153709L16.53 1.65371C16.6747 1.74339 16.7941 1.86854 16.8769 2.01729C16.9597 2.16603 17.0032 2.33346 17.0032 2.50371C17.0032 2.67396 16.9597 2.84139 16.8769 2.99013C16.7941 3.13888 16.6747 3.26403 16.53 3.35371L13 4.99971V5.99971H19C20.3256 6.0013 21.5964 6.52859 22.5338 7.46593C23.4711 8.40327 23.9984 9.67412 24 10.9997H19.657C18.8757 10.9999 18.1252 10.6953 17.565 10.1507L14.829 7.17171C14.0643 6.43422 13.0418 6.02461 11.9794 6.03022C10.917 6.03582 9.89887 6.45619 9.14199 7.20171L6.46399 10.1207C5.90046 10.6818 5.13821 10.9977 4.34299 10.9997ZM12 18.9997C11.7348 18.9997 11.4804 19.1051 11.2929 19.2926C11.1053 19.4801 11 19.7345 11 19.9997V23.9997H13V19.9997C13 19.7345 12.8946 19.4801 12.7071 19.2926C12.5196 19.1051 12.2652 18.9997 12 18.9997ZM19.657 12.9997H24V20.9997C24 21.7954 23.6839 22.5584 23.1213 23.121C22.5587 23.6836 21.7956 23.9997 21 23.9997H15V19.9997C15 19.2041 14.6839 18.441 14.1213 17.8784C13.5587 17.3158 12.7956 16.9997 12 16.9997C11.2043 16.9997 10.4413 17.3158 9.87867 17.8784C9.31606 18.441 8.99999 19.2041 8.99999 19.9997V23.9997H2.99999C2.20434 23.9997 1.44128 23.6836 0.878672 23.121C0.316063 22.5584 -7.62939e-06 21.7954 -7.62939e-06 20.9997L-7.62939e-06 12.9997H4.34299C5.00675 12.9999 5.6639 12.8678 6.27602 12.6111C6.88813 12.3545 7.44293 11.9783 7.90799 11.5047L10.586 8.58571C10.9641 8.23093 11.4617 8.03098 11.9802 8.02543C12.4986 8.01987 13.0003 8.20911 13.386 8.55571L16.124 11.5347C16.5869 12.0002 17.1374 12.3694 17.7439 12.6208C18.3503 12.8723 19.0005 13.0011 19.657 12.9997ZM5.99999 20.9997C5.99999 20.7345 5.89464 20.4801 5.7071 20.2926C5.51956 20.1051 5.26521 19.9997 4.99999 19.9997H3.99999C3.73478 19.9997 3.48042 20.1051 3.29289 20.2926C3.10535 20.4801 2.99999 20.7345 2.99999 20.9997C2.99999 21.2649 3.10535 21.5193 3.29289 21.7068C3.48042 21.8944 3.73478 21.9997 3.99999 21.9997H4.99999C5.26521 21.9997 5.51956 21.8944 5.7071 21.7068C5.89464 21.5193 5.99999 21.2649 5.99999 20.9997ZM5.99999 16.9997C5.99999 16.7345 5.89464 16.4801 5.7071 16.2926C5.51956 16.1051 5.26521 15.9997 4.99999 15.9997H3.99999C3.73478 15.9997 3.48042 16.1051 3.29289 16.2926C3.10535 16.4801 2.99999 16.7345 2.99999 16.9997C2.99999 17.2649 3.10535 17.5193 3.29289 17.7068C3.48042 17.8944 3.73478 17.9997 3.99999 17.9997H4.99999C5.26521 17.9997 5.51956 17.8944 5.7071 17.7068C5.89464 17.5193 5.99999 17.2649 5.99999 16.9997ZM14 12.9997C14 12.6041 13.8827 12.2175 13.6629 11.8886C13.4432 11.5597 13.1308 11.3033 12.7654 11.152C12.3999 11.0006 11.9978 10.961 11.6098 11.0381C11.2218 11.1153 10.8655 11.3058 10.5858 11.5855C10.3061 11.8652 10.1156 12.2216 10.0384 12.6095C9.96125 12.9975 10.0009 13.3996 10.1522 13.7651C10.3036 14.1305 10.56 14.4429 10.8889 14.6627C11.2178 14.8824 11.6044 14.9997 12 14.9997C12.5304 14.9997 13.0391 14.789 13.4142 14.4139C13.7893 14.0389 14 13.5301 14 12.9997ZM21 20.9997C21 20.7345 20.8946 20.4801 20.7071 20.2926C20.5196 20.1051 20.2652 19.9997 20 19.9997H19C18.7348 19.9997 18.4804 20.1051 18.2929 20.2926C18.1053 20.4801 18 20.7345 18 20.9997C18 21.2649 18.1053 21.5193 18.2929 21.7068C18.4804 21.8944 18.7348 21.9997 19 21.9997H20C20.2652 21.9997 20.5196 21.8944 20.7071 21.7068C20.8946 21.5193 21 21.2649 21 20.9997ZM20 15.9997H19C18.7348 15.9997 18.4804 16.1051 18.2929 16.2926C18.1053 16.4801 18 16.7345 18 16.9997C18 17.2649 18.1053 17.5193 18.2929 17.7068C18.4804 17.8944 18.7348 17.9997 19 17.9997H20C20.2652 17.9997 20.5196 17.8944 20.7071 17.7068C20.8946 17.5193 21 17.2649 21 16.9997C21 16.7345 20.8946 16.4801 20.7071 16.2926C20.5196 16.1051 20.2652 15.9997 20 15.9997Z" fill="#02499B"/>
<path d="M4.34299 10.9997H-7.62939e-06C0.00158023 9.67412 0.528874 8.40327 1.46621 7.46593C2.40355 6.52859 3.6744 6.0013 4.99999 5.99971H11V1.63571C11.0002 1.36044 11.0698 1.08966 11.2023 0.848416C11.3349 0.607171 11.5262 0.403252 11.7584 0.255518C11.9907 0.107784 12.2565 0.0210062 12.5312 0.00321096C12.8059 -0.0145842 13.0806 0.0371776 13.33 0.153709L16.53 1.65371C16.6747 1.74339 16.7941 1.86854 16.8769 2.01729C16.9597 2.16603 17.0032 2.33346 17.0032 2.50371C17.0032 2.67396 16.9597 2.84139 16.8769 2.99013C16.7941 3.13888 16.6747 3.26403 16.53 3.35371L13 4.99971V5.99971H19C20.3256 6.0013 21.5964 6.52859 22.5338 7.46593C23.4711 8.40327 23.9984 9.67412 24 10.9997H19.657C18.8757 10.9999 18.1252 10.6953 17.565 10.1507L14.829 7.17171C14.0643 6.43422 13.0418 6.02461 11.9794 6.03022C10.917 6.03582 9.89887 6.45619 9.14199 7.20171L6.46399 10.1207C5.90046 10.6818 5.13821 10.9977 4.34299 10.9997ZM12 18.9997C11.7348 18.9997 11.4804 19.1051 11.2929 19.2926C11.1053 19.4801 11 19.7345 11 19.9997V23.9997H13V19.9997C13 19.7345 12.8946 19.4801 12.7071 19.2926C12.5196 19.1051 12.2652 18.9997 12 18.9997ZM19.657 12.9997H24V20.9997C24 21.7954 23.6839 22.5584 23.1213 23.121C22.5587 23.6836 21.7956 23.9997 21 23.9997H15V19.9997C15 19.2041 14.6839 18.441 14.1213 17.8784C13.5587 17.3158 12.7956 16.9997 12 16.9997C11.2043 16.9997 10.4413 17.3158 9.87867 17.8784C9.31606 18.441 8.99999 19.2041 8.99999 19.9997V23.9997H2.99999C2.20434 23.9997 1.44128 23.6836 0.878672 23.121C0.316063 22.5584 -7.62939e-06 21.7954 -7.62939e-06 20.9997L-7.62939e-06 12.9997H4.34299C5.00675 12.9999 5.6639 12.8678 6.27602 12.6111C6.88813 12.3545 7.44293 11.9783 7.90799 11.5047L10.586 8.58571C10.9641 8.23093 11.4617 8.03098 11.9802 8.02543C12.4986 8.01987 13.0003 8.20911 13.386 8.55571L16.124 11.5347C16.5869 12.0002 17.1374 12.3694 17.7439 12.6208C18.3503 12.8723 19.0005 13.0011 19.657 12.9997ZM5.99999 20.9997C5.99999 20.7345 5.89464 20.4801 5.7071 20.2926C5.51956 20.1051 5.26521 19.9997 4.99999 19.9997H3.99999C3.73478 19.9997 3.48042 20.1051 3.29289 20.2926C3.10535 20.4801 2.99999 20.7345 2.99999 20.9997C2.99999 21.2649 3.10535 21.5193 3.29289 21.7068C3.48042 21.8944 3.73478 21.9997 3.99999 21.9997H4.99999C5.26521 21.9997 5.51956 21.8944 5.7071 21.7068C5.89464 21.5193 5.99999 21.2649 5.99999 20.9997ZM5.99999 16.9997C5.99999 16.7345 5.89464 16.4801 5.7071 16.2926C5.51956 16.1051 5.26521 15.9997 4.99999 15.9997H3.99999C3.73478 15.9997 3.48042 16.1051 3.29289 16.2926C3.10535 16.4801 2.99999 16.7345 2.99999 16.9997C2.99999 17.2649 3.10535 17.5193 3.29289 17.7068C3.48042 17.8944 3.73478 17.9997 3.99999 17.9997H4.99999C5.26521 17.9997 5.51956 17.8944 5.7071 17.7068C5.89464 17.5193 5.99999 17.2649 5.99999 16.9997ZM14 12.9997C14 12.6041 13.8827 12.2175 13.6629 11.8886C13.4432 11.5597 13.1308 11.3033 12.7654 11.152C12.3999 11.0006 11.9978 10.961 11.6098 11.0381C11.2218 11.1153 10.8655 11.3058 10.5858 11.5855C10.3061 11.8652 10.1156 12.2216 10.0384 12.6095C9.96125 12.9975 10.0009 13.3996 10.1522 13.7651C10.3036 14.1305 10.56 14.4429 10.8889 14.6627C11.2178 14.8824 11.6044 14.9997 12 14.9997C12.5304 14.9997 13.0391 14.789 13.4142 14.4139C13.7893 14.0389 14 13.5301 14 12.9997ZM21 20.9997C21 20.7345 20.8946 20.4801 20.7071 20.2926C20.5196 20.1051 20.2652 19.9997 20 19.9997H19C18.7348 19.9997 18.4804 20.1051 18.2929 20.2926C18.1053 20.4801 18 20.7345 18 20.9997C18 21.2649 18.1053 21.5193 18.2929 21.7068C18.4804 21.8944 18.7348 21.9997 19 21.9997H20C20.2652 21.9997 20.5196 21.8944 20.7071 21.7068C20.8946 21.5193 21 21.2649 21 20.9997ZM20 15.9997H19C18.7348 15.9997 18.4804 16.1051 18.2929 16.2926C18.1053 16.4801 18 16.7345 18 16.9997C18 17.2649 18.1053 17.5193 18.2929 17.7068C18.4804 17.8944 18.7348 17.9997 19 17.9997H20C20.2652 17.9997 20.5196 17.8944 20.7071 17.7068C20.8946 17.5193 21 17.2649 21 16.9997C21 16.7345 20.8946 16.4801 20.7071 16.2926C20.5196 16.1051 20.2652 15.9997 20 15.9997Z" fill="white" fill-opacity="0.1"/>
</g>
<defs>
<clipPath id="clip0_3_82">
<rect width="24" height="24" fill="white"/>
</clipPath>
</defs>
</svg>
