<?xml version="1.0" encoding="iso-8859-1"?>
<!-- Uploaded to: SVG Repo, www.svgrepo.com, Generator: SVG Repo Mixer Tools -->
<svg height="800px" width="800px" version="1.1" id="Layer_1" xmlns="http://www.w3.org/2000/svg" xmlns:xlink="http://www.w3.org/1999/xlink" 
	 viewBox="0 0 503.112 503.112" xml:space="preserve">
<g transform="translate(0 -1)">
	<path style="fill:#E0E0E0;" d="M374.856,211.415h45.714h45.714v36.571l-18.286,18.286l18.286,36.571L447.999,357.7l18.286,27.429
		L438.856,421.7l18.286,45.714l-36.571,27.429l-36.571-27.429l18.286-45.714l-27.429-36.571l18.286-27.429l-18.286-54.857
		l18.286-36.571l-18.286-18.286V211.415z"/>
	<path style="fill:#878787;" d="M420.571,339.415c-5.056,0-9.143-4.087-9.143-9.143V211.415c0-5.056,4.087-9.143,9.143-9.143
		c5.056,0,9.143,4.087,9.143,9.143v118.857C429.713,335.328,425.627,339.415,420.571,339.415"/>
	<path style="fill:#E0E0E0;" d="M237.713,147.415h-18.286c0-56.786,64.037-100.827,119.113-100.827v18.286
		C292.872,64.873,237.713,101.691,237.713,147.415"/>
	<path style="fill:#7C7B7A;" d="M194.011,470.096c3.182-8.695,10.258-15.771,18.953-18.953c5.495-2.011,10.752-2.414,15.634-1.664
		c4.773,0.731,9.115-2.725,9.115-7.552V58.841c0-21.769-17.655-39.424-39.433-39.424H39.424C17.655,19.417,0,37.072,0,58.841
		v396.571c0,21.778,17.655,39.433,39.424,39.433h145.371c4.827,0,8.283-4.352,7.552-9.125
		C191.607,480.848,192,475.591,194.011,470.096"/>
	<path style="fill:#E85A4B;" d="M338.541,55.986c0-47.241,82.03-45.714,82.03-45.714s82.286-1.527,82.286,45.714
		c0,0,6.473,155.429-45.714,155.429h-36.571h-36.315C332.068,211.415,338.541,55.986,338.541,55.986"/>
	<path style="fill:#8E382F;" d="M395.667,92.557h50.286c6.309,0,11.429-5.12,11.429-11.429V67.415
		c0-6.309-5.12-11.429-11.429-11.429h-50.286c-6.309,0-11.429,5.12-11.429,11.429v13.714
		C384.239,87.437,389.359,92.557,395.667,92.557"/>
	<path style="fill:#383838;" d="M45.713,412.557V101.7c0-20.197,16.375-36.571,36.571-36.571h73.143
		c20.197,0,36.571,16.375,36.571,36.571v310.857c0,20.197-16.375,36.571-36.571,36.571H82.285
		C62.088,449.129,45.713,432.754,45.713,412.557"/>
	<path style="fill:#1C1C1C;" d="M45.704,266.272h146.295v-18.286H45.704V266.272z"/>
	<g>
		<path style="fill:#7C7B7A;" d="M91.428,202.272h54.857V165.7H91.428V202.272z M147.995,220.557H89.709
			c-9.134,0-16.567-7.433-16.567-16.567v-40c0-9.143,7.433-16.576,16.567-16.576h58.286c9.143,0,16.576,7.433,16.576,16.576v40
			C164.571,213.124,157.137,220.557,147.995,220.557L147.995,220.557z"/>
		<path style="fill:#7C7B7A;" d="M109.713,147.415h18.286v-27.429c0-5.047-4.096-9.143-9.143-9.143
			c-5.047,0-9.143,4.096-9.143,9.143V147.415z M146.285,165.7H91.428v-45.714c0-15.122,12.306-27.429,27.429-27.429
			s27.429,12.306,27.429,27.429V165.7z"/>
		<path style="fill:#7C7B7A;" d="M91.428,394.272h54.857V357.7H91.428V394.272z M147.995,412.557H89.709
			c-9.134,0-16.567-7.433-16.567-16.567v-40c0-9.143,7.433-16.576,16.567-16.576h58.286c9.143,0,16.576,7.433,16.576,16.576v40
			C164.571,405.124,157.137,412.557,147.995,412.557L147.995,412.557z"/>
		<path style="fill:#7C7B7A;" d="M100.571,357.7c-5.056,0-9.143-4.087-9.143-9.143v-36.571c0-15.122,12.306-27.429,27.429-27.429
			s27.429,12.306,27.429,27.429c0,5.056-4.087,9.143-9.143,9.143c-5.056,0-9.143-4.087-9.143-9.143c0-5.047-4.096-9.143-9.143-9.143
			c-5.047,0-9.143,4.096-9.143,9.143v36.571C109.713,353.613,105.627,357.7,100.571,357.7"/>
	</g>
</g>
</svg>