<?xml version="1.0" encoding="iso-8859-1"?>
<!-- Uploaded to: SVG Repo, www.svgrepo.com, Generator: SVG Repo Mixer Tools -->
<svg version="1.1" id="Layer_1" xmlns="http://www.w3.org/2000/svg" xmlns:xlink="http://www.w3.org/1999/xlink" 
	 viewBox="0 0 390.206 390.206" xml:space="preserve">
<path style="fill:#56ACE0;" d="M266.085,141.123v108.412c-5.947,0-10.861,4.848-10.861,10.861v11.378
	c0,2.133,0.517,4.331,1.616,5.947H21.657V113.002h235.766c-1.099,1.616-1.616,3.814-1.616,5.947v11.378
	C255.806,136.081,260.396,140.865,266.085,141.123z"/>
<path style="fill:#FFFFFF;" d="M277.463,260.396v11.378c0,2.198-0.517,4.331-1.616,5.947h93.22v-50.424H352.84
	c-5.947,0-10.861-4.848-10.861-10.861c0-5.947,4.848-10.861,10.861-10.861h16.291v-20.622h-48.808
	c-5.947,0-10.861-4.848-10.861-10.861c0-5.947,4.848-10.861,10.861-10.861h48.808v-50.424h-93.737
	c1.099,1.616,1.616,3.814,1.616,5.947v11.378c0,5.947-4.848,10.861-10.861,10.861v108.024
	C272.614,249.535,277.463,254.448,277.463,260.396z"/>
<g>
	<path style="fill:#194F82;" d="M266.667,155.281c-5.948,0-10.861,4.848-10.861,10.861v11.378c0,5.947,4.848,10.861,10.861,10.861
		c5.947,0,10.861-4.848,10.861-10.861v-11.378C277.463,160.129,272.614,155.281,266.667,155.281z"/>
	<path style="fill:#194F82;" d="M266.667,202.408c-5.948,0-10.861,4.848-10.861,10.861v11.378c0,5.947,4.848,10.861,10.861,10.861
		c5.947,0,10.861-4.848,10.861-10.861v-11.378C277.463,207.257,272.614,202.408,266.667,202.408z"/>
	<path style="fill:#194F82;" d="M226.521,186.699H55.79c-5.947,0-10.861,4.848-10.861,10.861s4.848,10.861,10.861,10.861h170.731
		c5.947,0,10.861-4.848,10.861-10.861S232.469,186.699,226.521,186.699z"/>
	<path style="fill:#194F82;" d="M226.521,234.925H55.79c-5.947,0-10.861,4.848-10.861,10.861c0,5.947,4.848,10.861,10.861,10.861
		h170.731c5.947,0,10.861-4.848,10.861-10.861C237.382,239.774,232.469,234.925,226.521,234.925z"/>
	<polygon style="fill:#194F82;" points="56.889,168.275 65.034,168.275 65.034,138.473 75.313,138.473 75.313,131.426 
		46.093,131.426 46.093,138.473 56.889,138.473 	"/>
	<rect x="81.261" y="131.426" style="fill:#194F82;" width="8.145" height="36.848"/>
	<path style="fill:#194F82;" d="M145.778,157.996l3.814-4.331l10.861,14.61h9.762c-1.616-2.198-13.576-18.941-14.61-20.622
		l14.61-16.291h-10.279l-14.093,15.192v-15.192h-8.145v36.848h8.145v-10.214H145.778z"/>
	<polygon style="fill:#194F82;" points="202.149,161.228 183.208,161.228 183.208,153.6 199.952,153.6 199.952,146.554 
		183.208,146.554 183.208,138.99 201.632,138.99 201.632,131.426 175.063,131.426 175.063,168.275 202.149,168.275 	"/>
	<polygon style="fill:#194F82;" points="217.341,168.275 225.422,168.275 225.422,138.473 235.766,138.473 235.766,131.426 
		206.481,131.426 206.481,138.473 217.341,138.473 	"/>
	<path style="fill:#194F82;" d="M115.976,168.792c5.947,0,11.378-2.198,15.192-7.046l-4.848-5.947
		c-2.715,3.232-5.947,4.848-9.762,4.848c-7.046,0-11.378-5.43-11.378-11.378l0,0l0,0c0-5.947,4.331-11.378,11.378-11.378
		c3.814,0,7.046,1.616,9.762,4.848l4.848-5.947c-3.814-3.814-9.244-5.947-15.192-5.947c-12.994,0-19.523,9.762-19.523,18.941
		C96.453,158.966,102.982,168.792,115.976,168.792z"/>
	<path style="fill:#194F82;" d="M379.345,91.281H10.861C4.913,91.281,0,96.129,0,102.141v185.923
		c0,5.947,4.848,10.861,10.861,10.861h368.485c5.947,0,10.861-4.848,10.861-10.861V102.141
		C390.206,96.194,385.358,91.281,379.345,91.281z M368.549,163.362h-48.808c-5.947,0-10.861,4.848-10.861,10.861
		c0,5.947,4.848,10.861,10.861,10.861h48.808v20.622h-16.291c-5.947,0-10.861,4.848-10.861,10.861
		c0,5.947,4.848,10.861,10.861,10.861h16.291v50.424h-93.22c1.099-1.616,1.616-3.814,1.616-5.948v-11.378
		c0-5.947-4.848-10.861-10.861-10.861c-5.947,0-10.861,4.848-10.861,10.861v11.378c0,2.198,0.517,4.331,1.616,5.948H21.657V113.002
		h235.766c-1.099,1.616-1.616,3.814-1.616,5.947v11.378c0,5.947,4.848,10.861,10.861,10.861c5.947,0,10.861-4.848,10.861-10.861
		V118.95c0-2.198-0.517-4.331-1.616-5.947h93.22v50.424h-0.582V163.362z"/>
</g>
</svg>