<svg width="23" height="20" viewBox="0 0 23 20" fill="none" xmlns="http://www.w3.org/2000/svg">
<path d="M16.1835 19.947C14.786 19.741 13.6324 19.1522 12.662 18.1498C11.8366 17.2973 11.3285 16.3414 11.0832 15.1794C10.9404 14.5031 10.9404 13.4728 11.0832 12.7965C11.3285 11.6346 11.8366 10.6787 12.662 9.8261C15.0546 7.35474 18.9237 7.35474 21.3162 9.8261C22.1852 10.7236 22.7445 11.8261 22.9463 13.0392C23.0179 13.4694 23.0179 14.5066 22.9463 14.9367C22.5842 17.1126 20.9897 18.9953 18.932 19.6762C18.0341 19.9735 17.0325 20.0721 16.1835 19.947ZM17.3389 19.3072C17.7848 19.0804 18.2218 18.4411 18.5272 17.5691C18.6253 17.2889 18.7187 17.0047 18.7347 16.9376L18.764 16.8156L18.1372 16.7603C17.7924 16.7299 17.2685 16.7051 16.9729 16.7052C16.3982 16.7052 15.3038 16.7915 15.2516 16.8408C15.203 16.8867 15.5096 17.7713 15.7323 18.2279C15.852 18.4732 16.0377 18.7532 16.198 18.9298C16.6058 19.3792 16.9643 19.4978 17.3389 19.3072ZM15.5912 19.1883C15.5912 19.1765 15.5358 19.0861 15.4681 18.9875C15.1727 18.5569 14.6434 17.293 14.6434 17.0182C14.6434 16.976 14.6168 16.9416 14.5841 16.9416C14.472 16.9416 13.6711 17.1706 13.2528 17.3219L12.8337 17.4735L13.1344 17.778C13.7034 18.3546 14.4531 18.8306 15.2051 19.0929C15.5402 19.2098 15.5912 19.2224 15.5912 19.1883ZM19.0505 18.9838C19.7598 18.6876 20.3066 18.3197 20.8445 17.7764L21.1458 17.4722L20.7636 17.3251C20.4094 17.1889 19.5302 16.9429 19.3941 16.9419C19.3616 16.9419 19.3348 16.976 19.3348 17.0182C19.3348 17.296 18.7638 18.6563 18.5004 19.0058C18.4381 19.0886 18.3871 19.1687 18.3871 19.1839C18.3871 19.2321 18.6345 19.1574 19.0505 18.9838ZM12.6905 16.9003C12.9339 16.7779 13.5425 16.5732 14.051 16.4429C14.2856 16.3828 14.4736 16.3151 14.4688 16.2925C14.4232 16.0775 14.3117 14.9065 14.3117 14.6416C14.3117 14.4553 14.2986 14.2692 14.2828 14.2281C14.2575 14.1624 14.0918 14.1534 12.9095 14.1534H11.5649L11.5915 14.3778C11.7065 15.3509 12.0073 16.2779 12.4041 16.8817C12.4887 17.0105 12.4734 17.0094 12.6905 16.9003ZM21.8221 16.42C22.0757 15.9201 22.2502 15.3587 22.3432 14.7432C22.3824 14.4838 22.4147 14.2449 22.4148 14.2125C22.4148 14.1666 22.1143 14.1534 21.0683 14.1534H19.7215L19.6965 14.4487C19.6827 14.6112 19.6451 15.0205 19.613 15.3584C19.5808 15.6963 19.5532 16.0549 19.5514 16.1553L19.5481 16.3378L20.1262 16.4958C20.4441 16.5827 20.8813 16.7276 21.0977 16.8178C21.5587 17.0101 21.5087 17.0375 21.8221 16.42ZM15.916 16.1386C16.6006 16.072 17.4916 16.08 18.2439 16.1595C18.5953 16.1966 18.8891 16.2205 18.897 16.2126C18.9256 16.1841 19.0429 15.1582 19.0746 14.6615L19.1071 14.1535H16.9918H14.8765L14.9034 14.5197C14.9656 15.3683 14.9795 15.518 15.0295 15.8698L15.0819 16.2392L15.2537 16.2126C15.3482 16.1982 15.6461 16.1648 15.916 16.1386ZM14.3249 12.9838C14.34 12.7043 14.3875 12.256 14.4306 11.9874C14.4738 11.7188 14.4994 11.4894 14.4875 11.4776C14.4757 11.4658 14.2696 11.4038 14.0295 11.3397C13.7895 11.2756 13.375 11.1382 13.1085 11.0343C12.8421 10.9304 12.6123 10.8454 12.5979 10.8454C12.551 10.8454 12.2383 11.344 12.0456 11.7262C11.8247 12.1644 11.6257 12.7802 11.5705 13.1964L11.5314 13.4918H12.9144H14.2975L14.3249 12.9838ZM19.0729 13.1255C19.0383 12.6877 18.9122 11.761 18.8737 11.6608C18.8513 11.6032 18.7912 11.5955 18.5574 11.6207C17.376 11.7482 16.6041 11.7481 15.4186 11.6207C15.1595 11.5929 15.1247 11.5991 15.1007 11.6783C15.0566 11.8244 14.9345 12.7814 14.913 13.1494L14.893 13.492H16.9974H19.1018L19.0729 13.1255ZM22.3603 13.1779C22.3098 12.7597 22.1624 12.2361 21.9861 11.8483C21.8376 11.5218 21.4335 10.8454 21.3869 10.8454C21.3725 10.8454 21.166 10.9234 20.9282 11.0187C20.6904 11.1139 20.2744 11.2515 20.0038 11.3243C19.7332 11.3971 19.5021 11.4662 19.4903 11.478C19.4785 11.4898 19.5021 11.6978 19.5431 11.9403C19.5839 12.1828 19.6294 12.562 19.6443 12.7829C19.6591 13.0039 19.682 13.2537 19.6948 13.3382L19.7182 13.4918H21.0581H22.3981L22.3603 13.1779ZM18.2669 11.0293C18.5005 11.0037 18.6974 10.977 18.7045 10.9699C18.7282 10.9463 18.474 10.2117 18.3425 9.92387C17.9738 9.11679 17.4411 8.5771 17.0132 8.5771C16.5339 8.5771 16.0124 9.09824 15.6361 9.95315C15.5142 10.23 15.2594 10.9161 15.2594 10.9674C15.2594 10.9926 15.7953 11.051 16.302 11.0809C16.9162 11.1171 17.6379 11.0982 18.2669 11.0293ZM14.8043 10.4193C14.9539 9.94063 15.2326 9.33962 15.4532 9.01992C15.5341 8.90266 15.5912 8.79763 15.58 8.78652C15.5446 8.7512 14.9172 8.9824 14.5486 9.16661C14.3531 9.26429 14.0546 9.44173 13.8852 9.5609C13.564 9.78682 13.0322 10.2659 13.0322 10.3293C13.0322 10.4102 14.3074 10.8346 14.5743 10.8425C14.6554 10.8458 14.6927 10.7764 14.8043 10.4193ZM19.926 10.7236C20.4243 10.5795 20.9461 10.3771 20.9461 10.3277C20.9461 10.2657 20.4104 9.78416 20.0931 9.5609C19.9237 9.44173 19.6251 9.26429 19.4296 9.16661C19.06 8.98191 18.4336 8.75124 18.398 8.78672C18.3868 8.79786 18.4322 8.8787 18.4991 8.96615C18.6806 9.20343 19.0765 10.0623 19.1966 10.4791C19.3206 10.9098 19.3028 10.9038 19.926 10.7236ZM0.0120256 8.0927L0.0238539 0H9.59633H19.1688L19.181 3.86323C19.1875 5.988 19.181 7.72647 19.1685 7.72647C19.155 7.72647 19.0162 7.69108 18.8602 7.64783L18.5766 7.5692V5.71031V3.85139H9.59643H0.616296V9.71123V15.5711H5.58435H10.5524L10.6312 15.8539C10.6746 16.0094 10.7101 16.1477 10.7101 16.1611C10.7101 16.1745 8.30029 16.1853 5.35504 16.1853H0L0.0120256 8.0927ZM2.65408 13.0901V11.7433H3.38859H4.12314V10.7272V9.71123H6.77689H9.43064V8.97877V8.24629H8.41178H7.39292V6.61591V4.98558H9.76236H12.1318V6.61591V8.24629H11.0892H10.0467V8.97877V9.71123H10.9737H11.9007L11.7486 9.92253C11.4422 10.348 11.4987 10.3256 10.732 10.3256H10.0467V11.0344V11.7433H10.3784C10.5608 11.7433 10.7101 11.7593 10.7101 11.7787C10.7101 11.7981 10.6584 12.0056 10.5952 12.2395C10.4348 12.8332 10.3768 13.2695 10.3748 13.8968L10.3715 14.4369H9.16578H7.96003V13.0901V11.7433H8.69458H9.42909V11.0344V10.3256H7.08334H4.73763V11.0344V11.7433H5.47214H6.20666V13.0901V14.4369H4.42959H2.65253V13.0901H2.65408Z" fill="#02499B"/>
</svg>
